<mxfile host="app.diagrams.net" modified="2023-11-29T05:31:32.830Z" agent="Mozilla/5.0 (Windows NT 10.0; Win64; x64) AppleWebKit/537.36 (KHTML, like Gecko) Chrome/119.0.0.0 Safari/537.36" etag="AE9Df4vnDDoAnXS_pkWu" version="22.1.4" type="github">
  <diagram id="piDafpqhtRUU5qUU-vj8" name="Page-1">
    <mxGraphModel dx="1434" dy="796" grid="1" gridSize="10" guides="1" tooltips="1" connect="1" arrows="1" fold="1" page="1" pageScale="1" pageWidth="827" pageHeight="1169" math="0" shadow="0">
      <root>
        <mxCell id="0" />
        <mxCell id="1" parent="0" />
        <mxCell id="8962rQQDY3VNNf6We3Pp-1" value="" style="strokeWidth=1;shadow=0;dashed=0;align=center;html=1;shape=mxgraph.mockup.containers.browserWindow;rSize=0;strokeColor2=#008cff;strokeColor3=#c4c4c4;mainText=,;recursiveResize=0;strokeColor=#FFFFFF;fontColor=#FFFFFF;" parent="1" vertex="1">
          <mxGeometry x="10" y="20" width="1150" height="1340" as="geometry" />
        </mxCell>
        <mxCell id="8962rQQDY3VNNf6We3Pp-2" value="Page 1" style="strokeWidth=1;shadow=0;dashed=0;align=center;html=1;shape=mxgraph.mockup.containers.anchor;fontSize=17;fontColor=#666666;align=left;" parent="8962rQQDY3VNNf6We3Pp-1" vertex="1">
          <mxGeometry x="60" y="12" width="110" height="26" as="geometry" />
        </mxCell>
        <mxCell id="8962rQQDY3VNNf6We3Pp-3" value="https://www.example.com" style="strokeWidth=1;shadow=0;dashed=0;align=center;html=1;shape=mxgraph.mockup.containers.anchor;rSize=0;fontSize=17;fontColor=#666666;align=left;" parent="8962rQQDY3VNNf6We3Pp-1" vertex="1">
          <mxGeometry x="130" y="60" width="250" height="26" as="geometry" />
        </mxCell>
        <mxCell id="8962rQQDY3VNNf6We3Pp-6" value="Dropdown" style="rounded=0;fillColor=#F1F2F4;strokeColor=none;html=1;fontColor=#596780;align=left;fontSize=10;spacingLeft=10" parent="8962rQQDY3VNNf6We3Pp-1" vertex="1">
          <mxGeometry x="990" y="127" width="90" height="33" as="geometry" />
        </mxCell>
        <mxCell id="8962rQQDY3VNNf6We3Pp-7" value="" style="shape=triangle;direction=south;fillColor=#596780;strokeColor=none;html=1" parent="8962rQQDY3VNNf6We3Pp-6" vertex="1">
          <mxGeometry x="1" y="0.5" width="12" height="6" relative="1" as="geometry">
            <mxPoint x="-20" y="-3" as="offset" />
          </mxGeometry>
        </mxCell>
        <mxCell id="8962rQQDY3VNNf6We3Pp-16" value="The d company" style="text;html=1;strokeColor=none;fillColor=none;align=center;verticalAlign=middle;whiteSpace=wrap;rounded=0;fontSize=13;fontColor=#0066CC;" parent="8962rQQDY3VNNf6We3Pp-1" vertex="1">
          <mxGeometry x="100" y="130" width="100" height="20" as="geometry" />
        </mxCell>
        <mxCell id="8962rQQDY3VNNf6We3Pp-18" value="" style="verticalLabelPosition=bottom;shadow=0;dashed=0;align=center;html=1;verticalAlign=top;strokeWidth=1;shape=mxgraph.mockup.graphics.simpleIcon;strokeColor=#999999;fontSize=13;fontColor=#0066CC;" parent="8962rQQDY3VNNf6We3Pp-1" vertex="1">
          <mxGeometry x="40" y="210" width="190" height="210" as="geometry" />
        </mxCell>
        <mxCell id="8962rQQDY3VNNf6We3Pp-35" value="" style="verticalLabelPosition=bottom;shadow=0;dashed=0;align=center;html=1;verticalAlign=top;strokeWidth=1;shape=mxgraph.mockup.markup.line;strokeColor=#999999;fillColor=#008CFF;fontSize=13;fontColor=#0066CC;" parent="8962rQQDY3VNNf6We3Pp-1" vertex="1">
          <mxGeometry y="1230" width="1150" height="20" as="geometry" />
        </mxCell>
        <mxCell id="seymav8gBYocV3_De4xC-2" value="d" style="text;html=1;align=center;verticalAlign=middle;resizable=0;points=[];autosize=1;fontSize=37;fontFamily=Tahoma;fillColor=#008CFF;fontColor=#FFFFFF;" parent="8962rQQDY3VNNf6We3Pp-1" vertex="1">
          <mxGeometry x="50" y="115" width="40" height="50" as="geometry" />
        </mxCell>
        <mxCell id="Z_W6JvnU2mq4zNc8RhEV-3" value="" style="verticalLabelPosition=bottom;shadow=0;dashed=0;align=center;html=1;verticalAlign=top;strokeWidth=1;shape=mxgraph.mockup.graphics.simpleIcon;strokeColor=#999999;fontSize=13;fontColor=#0066CC;" vertex="1" parent="8962rQQDY3VNNf6We3Pp-1">
          <mxGeometry x="260" y="210" width="190" height="210" as="geometry" />
        </mxCell>
        <mxCell id="Z_W6JvnU2mq4zNc8RhEV-4" value="" style="verticalLabelPosition=bottom;shadow=0;dashed=0;align=center;html=1;verticalAlign=top;strokeWidth=1;shape=mxgraph.mockup.graphics.simpleIcon;strokeColor=#999999;fontSize=13;fontColor=#0066CC;" vertex="1" parent="8962rQQDY3VNNf6We3Pp-1">
          <mxGeometry x="480" y="210" width="190" height="210" as="geometry" />
        </mxCell>
        <mxCell id="Z_W6JvnU2mq4zNc8RhEV-5" value="" style="verticalLabelPosition=bottom;shadow=0;dashed=0;align=center;html=1;verticalAlign=top;strokeWidth=1;shape=mxgraph.mockup.graphics.simpleIcon;strokeColor=#999999;fontSize=13;fontColor=#0066CC;" vertex="1" parent="8962rQQDY3VNNf6We3Pp-1">
          <mxGeometry x="700" y="210" width="190" height="210" as="geometry" />
        </mxCell>
        <mxCell id="Z_W6JvnU2mq4zNc8RhEV-6" value="" style="verticalLabelPosition=bottom;shadow=0;dashed=0;align=center;html=1;verticalAlign=top;strokeWidth=1;shape=mxgraph.mockup.graphics.simpleIcon;strokeColor=#999999;fontSize=13;fontColor=#0066CC;" vertex="1" parent="8962rQQDY3VNNf6We3Pp-1">
          <mxGeometry x="920" y="210" width="190" height="210" as="geometry" />
        </mxCell>
        <mxCell id="Z_W6JvnU2mq4zNc8RhEV-7" value="" style="verticalLabelPosition=bottom;shadow=0;dashed=0;align=center;html=1;verticalAlign=top;strokeWidth=1;shape=mxgraph.mockup.graphics.simpleIcon;strokeColor=#999999;fontSize=13;fontColor=#0066CC;" vertex="1" parent="8962rQQDY3VNNf6We3Pp-1">
          <mxGeometry x="40" y="460" width="190" height="210" as="geometry" />
        </mxCell>
        <mxCell id="Z_W6JvnU2mq4zNc8RhEV-8" value="" style="verticalLabelPosition=bottom;shadow=0;dashed=0;align=center;html=1;verticalAlign=top;strokeWidth=1;shape=mxgraph.mockup.graphics.simpleIcon;strokeColor=#999999;fontSize=13;fontColor=#0066CC;" vertex="1" parent="8962rQQDY3VNNf6We3Pp-1">
          <mxGeometry x="260" y="460" width="190" height="210" as="geometry" />
        </mxCell>
        <mxCell id="Z_W6JvnU2mq4zNc8RhEV-9" value="" style="verticalLabelPosition=bottom;shadow=0;dashed=0;align=center;html=1;verticalAlign=top;strokeWidth=1;shape=mxgraph.mockup.graphics.simpleIcon;strokeColor=#999999;fontSize=13;fontColor=#0066CC;" vertex="1" parent="8962rQQDY3VNNf6We3Pp-1">
          <mxGeometry x="480" y="460" width="190" height="210" as="geometry" />
        </mxCell>
        <mxCell id="Z_W6JvnU2mq4zNc8RhEV-10" value="" style="verticalLabelPosition=bottom;shadow=0;dashed=0;align=center;html=1;verticalAlign=top;strokeWidth=1;shape=mxgraph.mockup.graphics.simpleIcon;strokeColor=#999999;fontSize=13;fontColor=#0066CC;" vertex="1" parent="8962rQQDY3VNNf6We3Pp-1">
          <mxGeometry x="700" y="460" width="190" height="210" as="geometry" />
        </mxCell>
        <mxCell id="Z_W6JvnU2mq4zNc8RhEV-11" value="" style="verticalLabelPosition=bottom;shadow=0;dashed=0;align=center;html=1;verticalAlign=top;strokeWidth=1;shape=mxgraph.mockup.graphics.simpleIcon;strokeColor=#999999;fontSize=13;fontColor=#0066CC;" vertex="1" parent="8962rQQDY3VNNf6We3Pp-1">
          <mxGeometry x="920" y="460" width="190" height="210" as="geometry" />
        </mxCell>
        <mxCell id="Z_W6JvnU2mq4zNc8RhEV-12" value="" style="verticalLabelPosition=bottom;shadow=0;dashed=0;align=center;html=1;verticalAlign=top;strokeWidth=1;shape=mxgraph.mockup.graphics.simpleIcon;strokeColor=#999999;fontSize=13;fontColor=#0066CC;" vertex="1" parent="8962rQQDY3VNNf6We3Pp-1">
          <mxGeometry x="40" y="710" width="190" height="210" as="geometry" />
        </mxCell>
        <mxCell id="Z_W6JvnU2mq4zNc8RhEV-13" value="" style="verticalLabelPosition=bottom;shadow=0;dashed=0;align=center;html=1;verticalAlign=top;strokeWidth=1;shape=mxgraph.mockup.graphics.simpleIcon;strokeColor=#999999;fontSize=13;fontColor=#0066CC;" vertex="1" parent="8962rQQDY3VNNf6We3Pp-1">
          <mxGeometry x="260" y="710" width="190" height="210" as="geometry" />
        </mxCell>
        <mxCell id="Z_W6JvnU2mq4zNc8RhEV-14" value="" style="verticalLabelPosition=bottom;shadow=0;dashed=0;align=center;html=1;verticalAlign=top;strokeWidth=1;shape=mxgraph.mockup.graphics.simpleIcon;strokeColor=#999999;fontSize=13;fontColor=#0066CC;" vertex="1" parent="8962rQQDY3VNNf6We3Pp-1">
          <mxGeometry x="480" y="710" width="190" height="210" as="geometry" />
        </mxCell>
        <mxCell id="Z_W6JvnU2mq4zNc8RhEV-15" value="" style="verticalLabelPosition=bottom;shadow=0;dashed=0;align=center;html=1;verticalAlign=top;strokeWidth=1;shape=mxgraph.mockup.graphics.simpleIcon;strokeColor=#999999;fontSize=13;fontColor=#0066CC;" vertex="1" parent="8962rQQDY3VNNf6We3Pp-1">
          <mxGeometry x="700" y="710" width="190" height="210" as="geometry" />
        </mxCell>
        <mxCell id="Z_W6JvnU2mq4zNc8RhEV-16" value="" style="verticalLabelPosition=bottom;shadow=0;dashed=0;align=center;html=1;verticalAlign=top;strokeWidth=1;shape=mxgraph.mockup.graphics.simpleIcon;strokeColor=#999999;fontSize=13;fontColor=#0066CC;" vertex="1" parent="8962rQQDY3VNNf6We3Pp-1">
          <mxGeometry x="920" y="710" width="190" height="210" as="geometry" />
        </mxCell>
        <mxCell id="Z_W6JvnU2mq4zNc8RhEV-17" value="" style="verticalLabelPosition=bottom;shadow=0;dashed=0;align=center;html=1;verticalAlign=top;strokeWidth=1;shape=mxgraph.mockup.graphics.simpleIcon;strokeColor=#999999;fontSize=13;fontColor=#0066CC;" vertex="1" parent="8962rQQDY3VNNf6We3Pp-1">
          <mxGeometry x="40" y="950" width="190" height="210" as="geometry" />
        </mxCell>
        <mxCell id="Z_W6JvnU2mq4zNc8RhEV-18" value="" style="verticalLabelPosition=bottom;shadow=0;dashed=0;align=center;html=1;verticalAlign=top;strokeWidth=1;shape=mxgraph.mockup.graphics.simpleIcon;strokeColor=#999999;fontSize=13;fontColor=#0066CC;" vertex="1" parent="8962rQQDY3VNNf6We3Pp-1">
          <mxGeometry x="260" y="950" width="190" height="210" as="geometry" />
        </mxCell>
        <mxCell id="Z_W6JvnU2mq4zNc8RhEV-19" value="" style="verticalLabelPosition=bottom;shadow=0;dashed=0;align=center;html=1;verticalAlign=top;strokeWidth=1;shape=mxgraph.mockup.graphics.simpleIcon;strokeColor=#999999;fontSize=13;fontColor=#0066CC;" vertex="1" parent="8962rQQDY3VNNf6We3Pp-1">
          <mxGeometry x="480" y="950" width="190" height="210" as="geometry" />
        </mxCell>
        <mxCell id="Z_W6JvnU2mq4zNc8RhEV-20" value="" style="verticalLabelPosition=bottom;shadow=0;dashed=0;align=center;html=1;verticalAlign=top;strokeWidth=1;shape=mxgraph.mockup.graphics.simpleIcon;strokeColor=#999999;fontSize=13;fontColor=#0066CC;" vertex="1" parent="8962rQQDY3VNNf6We3Pp-1">
          <mxGeometry x="700" y="950" width="190" height="210" as="geometry" />
        </mxCell>
        <mxCell id="Z_W6JvnU2mq4zNc8RhEV-21" value="" style="verticalLabelPosition=bottom;shadow=0;dashed=0;align=center;html=1;verticalAlign=top;strokeWidth=1;shape=mxgraph.mockup.graphics.simpleIcon;strokeColor=#999999;fontSize=13;fontColor=#0066CC;" vertex="1" parent="8962rQQDY3VNNf6We3Pp-1">
          <mxGeometry x="920" y="950" width="190" height="210" as="geometry" />
        </mxCell>
        <mxCell id="Z_W6JvnU2mq4zNc8RhEV-23" value="&lt;&lt; Prev 1 2 3 4 5 6 7 8 9 10 Next &gt;&gt;" style="strokeWidth=1;shadow=0;dashed=0;align=center;html=1;shape=mxgraph.mockup.navigation.pagination;linkText=;fontSize=17;fontColor=#0000ff;fontStyle=4;" vertex="1" parent="8962rQQDY3VNNf6We3Pp-1">
          <mxGeometry x="404" y="1190" width="350" height="30" as="geometry" />
        </mxCell>
        <mxCell id="Z_W6JvnU2mq4zNc8RhEV-24" value="Search" style="strokeWidth=1;shadow=0;dashed=0;align=center;html=1;shape=mxgraph.mockup.forms.searchBox;strokeColor=#999999;mainText=;strokeColor2=#008cff;fontColor=#666666;fontSize=17;align=left;spacingLeft=3;whiteSpace=wrap;" vertex="1" parent="8962rQQDY3VNNf6We3Pp-1">
          <mxGeometry x="350" y="128.5" width="440" height="30" as="geometry" />
        </mxCell>
        <mxCell id="Z_W6JvnU2mq4zNc8RhEV-25" value="" style="verticalLabelPosition=bottom;shadow=0;dashed=0;align=center;html=1;verticalAlign=top;strokeWidth=1;shape=mxgraph.mockup.misc.shoppingCart;strokeColor=#999999;" vertex="1" parent="8962rQQDY3VNNf6We3Pp-1">
          <mxGeometry x="940" y="124.25" width="30" height="31.5" as="geometry" />
        </mxCell>
        <mxCell id="Z_W6JvnU2mq4zNc8RhEV-37" value="" style="verticalLabelPosition=bottom;shadow=0;dashed=0;align=center;html=1;verticalAlign=top;strokeWidth=1;shape=mxgraph.mockup.misc.help_icon;" vertex="1" parent="8962rQQDY3VNNf6We3Pp-1">
          <mxGeometry x="1070" y="1278" width="32" height="32" as="geometry" />
        </mxCell>
        <mxCell id="Z_W6JvnU2mq4zNc8RhEV-38" value="" style="strokeWidth=1;shadow=0;dashed=0;align=center;html=1;shape=mxgraph.mockup.rrect;rSize=10;fillColor=#ffffff;strokeColor=#666666;" vertex="1" parent="8962rQQDY3VNNf6We3Pp-1">
          <mxGeometry x="40" y="1280" width="480" height="30" as="geometry" />
        </mxCell>
        <mxCell id="Z_W6JvnU2mq4zNc8RhEV-39" value="Button 2" style="strokeColor=inherit;fillColor=inherit;gradientColor=inherit;strokeWidth=1;shadow=0;dashed=0;align=center;html=1;shape=mxgraph.mockup.rrect;rSize=0;fontSize=17;fontColor=#666666;fontStyle=1;resizeHeight=1;whiteSpace=wrap;" vertex="1" parent="Z_W6JvnU2mq4zNc8RhEV-38">
          <mxGeometry width="125" height="30" relative="1" as="geometry">
            <mxPoint x="125" as="offset" />
          </mxGeometry>
        </mxCell>
        <mxCell id="Z_W6JvnU2mq4zNc8RhEV-40" value="Button 3" style="strokeColor=inherit;fillColor=inherit;gradientColor=inherit;strokeWidth=1;shadow=0;dashed=0;align=center;html=1;shape=mxgraph.mockup.rrect;rSize=0;fontSize=17;fontColor=#666666;fontStyle=1;resizeHeight=1;whiteSpace=wrap;" vertex="1" parent="Z_W6JvnU2mq4zNc8RhEV-38">
          <mxGeometry width="125" height="30" relative="1" as="geometry">
            <mxPoint x="250" as="offset" />
          </mxGeometry>
        </mxCell>
        <mxCell id="Z_W6JvnU2mq4zNc8RhEV-41" value="Button 4" style="strokeColor=inherit;fillColor=inherit;gradientColor=inherit;strokeWidth=1;shadow=0;dashed=0;align=center;html=1;shape=mxgraph.mockup.rightButton;rSize=10;fontSize=17;fontColor=#666666;fontStyle=1;resizeHeight=1;whiteSpace=wrap;" vertex="1" parent="Z_W6JvnU2mq4zNc8RhEV-38">
          <mxGeometry x="1" width="125" height="30" relative="1" as="geometry">
            <mxPoint x="-120" as="offset" />
          </mxGeometry>
        </mxCell>
        <mxCell id="Z_W6JvnU2mq4zNc8RhEV-42" value="Button 1" style="strokeWidth=1;shadow=0;dashed=0;align=center;html=1;shape=mxgraph.mockup.leftButton;rSize=10;fontSize=17;fontColor=#ffffff;fontStyle=1;fillColor=#008cff;strokeColor=#008cff;resizeHeight=1;whiteSpace=wrap;" vertex="1" parent="Z_W6JvnU2mq4zNc8RhEV-38">
          <mxGeometry width="125" height="30" relative="1" as="geometry" />
        </mxCell>
      </root>
    </mxGraphModel>
  </diagram>
</mxfile>
